<svg id="Layer_1" data-name="Layer 1" xmlns="http://www.w3.org/2000/svg" viewBox="0 0 1080 1080"><defs><style>.cls-1{fill:#de9de5;}.cls-2{fill:#2e4223;}</style></defs><title>YOUNG MINDS_LOGO_02</title><path class="cls-1" d="M547.39,419.34c1.34-.85,2.67-1.85,4.14-2.6q44.41-22.94,88.87-45.81c1-.5,2-.86,3.07-1.28a1.82,1.82,0,0,1,2.31,1.63c.07,2.5.12,5,.12,7.5q0,40.85,0,81.69c0,2.22-.08,4.44,0,6.67a4.37,4.37,0,0,1-2.44,4c-1.19.71-2.44,1.33-3.68,2L554.55,517c-1.73.88-3.5,1.67-5.26,2.48a1.8,1.8,0,0,1-2.29-1.65c-.08-1.67-.15-3.33-.16-5,0-6.12,0-12.23,0-18.34q0-33.35,0-66.69C546.85,425,546.57,422.24,547.39,419.34Z"/><path class="cls-1" d="M434.68,469.15c-.09-1.54-.28-3.47-.29-5.39q0-44.13,0-88.26c0-1.1,0-2.22.06-3.32.1-2.61,1.23-3.17,3.86-1.93,1,.47,2,1,3,1.5q42.92,22.1,85.82,44.22c1.94,1,4.12,1.69,5.7,3.88.07,1.64.24,3.57.24,5.49q0,44.13,0,88.26c0,1.65-.2,3.3-.32,5-.05.67-1.21,1.2-2,.87-1.52-.68-3-1.34-4.52-2.09q-42.93-22.08-85.84-44.19C438.45,472.14,436.27,471.43,434.68,469.15Z"/><path class="cls-1" d="M539.66,403.59c-18.76.33-35.73-15.93-35.42-36.34a35.82,35.82,0,0,1,71.64.79A35.41,35.41,0,0,1,539.66,403.59Z"/><path class="cls-2" d="M755.76,603.49c9.1,0,18.21,0,27.31,0a21.34,21.34,0,0,1,4.12.54,1.44,1.44,0,0,1,.87,1,9.9,9.9,0,0,1,.13,2.77,50.11,50.11,0,0,1-33.58,42.69c-12.47,4.37-25.23,5-37.83.86-16.24-5.32-28.1-15.86-33.48-32.27-5.63-17.2-2.67-33.28,9.36-47.13,10.69-12.32,24.34-18.43,40.73-18.46a57.7,57.7,0,0,1,33,10,44,44,0,0,1,14.55,15.82,16.53,16.53,0,0,1,.94,2.61c.19.54-.49,1.46-1.12,1.5-1.39.1-2.78.24-4.17.25-4.21,0-8.41,0-12.61,0a5.61,5.61,0,0,1-4.34-1.89c-1-1-1.94-2-2.94-3-11.34-11-29.11-11.15-40.31-4.46a39.11,39.11,0,0,0-8.24,6.46c-7.47,7.79-10.11,17.17-8.67,27.7,2.11,15.5,15.51,27.66,31.54,29a40.09,40.09,0,0,0,18.54-2.74,30.33,30.33,0,0,0,14.75-12.4,1.63,1.63,0,0,0-1.25-2.53c-.7-.06-1.4-.13-2.1-.13-2.1,0-4.2,0-6.3,0-8.4,0-16.81,0-25.21,0a31.64,31.64,0,0,1-4.87-.35c-.54-.09-1.39-.82-1.4-1.28-.13-4.19-.11-8.38-.1-12.57a2.1,2.1,0,0,1,1.92-1.72c1.86-.1,3.72-.22,5.59-.22,8.4,0,16.8,0,25.21,0Z"/><path class="cls-2" d="M646.51,651.55c-1.86-3.08-3.44-5.67-5-8.27q-16.15-27.07-32.3-54.16c-1-1.6-2.07-3.09-3.14-4.61-.07-.1-.44,0-.65,0s-.45.2-.5.35a8,8,0,0,0-.45,2c-.05,4-.05,7.94-.05,11.91q0,23.13,0,46.25c0,6.84-.16,6.61-6.56,6.61-3.27,0-6.54-.09-9.8-.15a2.39,2.39,0,0,1-2-1.73c-.08-1.16-.21-2.33-.21-3.49q0-42.75,0-85.51c0-4.45.41-5.34,5.14-5.32l13.32,0a4.31,4.31,0,0,1,4,2.35c1,1.82,2.16,3.6,3.23,5.41q16.33,27.8,32.66,55.57c.83,1.4,1.8,2.71,2.73,4a.87.87,0,0,0,.57.26.73.73,0,0,0,.93-.8c.06-2.09.18-4.19.18-6.28,0-17.53,0-35.05,0-52.57,0-2.31-.31-4.67.49-7a5.48,5.48,0,0,1,1.85-.77c4.43-.08,8.87-.14,13.3-.05,1.73,0,2.42.82,2.52,2.71.08,1.64.09,3.27.09,4.91q0,40.29,0,80.59c0,1.87-.07,3.74-.17,5.6a2.21,2.21,0,0,1-2.3,2.11C658.62,651.78,652.8,651.76,646.51,651.55Z"/><path class="cls-2" d="M473.13,572.19c-10.93-12.5-24.67-18.83-41.29-18.72-16.07.11-29.6,6.06-40.2,18.13-12.12,13.69-15,29.6-10,47,4.11,14.18,17.75,28.09,33.82,32.85a60.86,60.86,0,0,0,26.3,1.68c19.32-2.71,44.59-21.76,43-51.68C484.17,590.32,480.49,580.53,473.13,572.19Zm-14.72,53.2c-10.06,11.14-22.45,14.93-36.74,10.55a33.44,33.44,0,0,1-18.88-49.79c4.76-7.57,11.31-13,20.13-15.15a83.69,83.69,0,0,1,8.92-1.3c12.83,0,22.46,5.58,29.44,16.07C468.86,597.19,468.53,614.18,458.41,625.39Z"/><path class="cls-2" d="M514.72,556.57c.79,2.25.46,4.6.47,6.91q0,24.87,0,49.75c0,2.1,0,4.2.06,6.3a24.21,24.21,0,0,0,1.47,7.54,14.22,14.22,0,0,0,10.2,9.69,21.3,21.3,0,0,0,11.74,0,13.46,13.46,0,0,0,9.11-8,27,27,0,0,0,1.43-4.66,48.17,48.17,0,0,0,.87-10.45q0-24.89,0-49.75c0-2.1.12-4.19.21-6.29a2.28,2.28,0,0,1,1.87-1.81c4.66,0,9.32,0,14,0a2.31,2.31,0,0,1,2.13,2.31c.06,1.17.09,2.34.09,3.5,0,18.69,0,37.37,0,56.05a52.57,52.57,0,0,1-1.29,11.81,28,28,0,0,1-11.26,17.16A39.61,39.61,0,0,1,506.59,644c-5.77-5-8.34-11.7-9.29-19.08a54.36,54.36,0,0,1-.34-7q0-28.38,0-56.76c0-1.16.06-2.33.13-3.49a2.52,2.52,0,0,1,1.76-1.93,71.12,71.12,0,0,1,14.66.09C513.92,555.9,514.29,556.31,514.72,556.57Z"/><path class="cls-2" d="M332.57,598.34c.53-.36,1.3-.62,1.6-1.15,1-1.82,1.95-3.71,2.87-5.6q7.2-14.79,14.38-29.59c.81-1.67,1.69-3.32,2.59-5a2.65,2.65,0,0,1,2.29-1.4c5.36,0,10.72.06,16.08.13.86,0,1.48,1.32,1.06,2.16-.93,1.88-1.87,3.76-2.86,5.61q-12.29,22.79-24.6,45.58c-.78,1.43-1.48,2.91-2.31,4.31a12.66,12.66,0,0,0-1.72,6.69c0,7.46,0,14.93,0,22.4,0,2.1,0,4.2-.12,6.3-.07,1.75-.92,2.73-2.48,2.74-4.44,0-8.87,0-13.3,0a2.35,2.35,0,0,1-2.32-2.13c-.08-1.87-.15-3.73-.15-5.6,0-6.76,0-13.53,0-20.3,0-8.78.59-6-3.59-13.88-8.23-15.44-16.59-30.81-24.88-46.22-1-1.85-1.94-3.72-2.87-5.6a1.41,1.41,0,0,1,1-2.1c5.36,0,10.72-.12,16.07,0a3.26,3.26,0,0,1,2.22,1.47c1.1,1.78,2,3.71,2.9,5.59q7.55,15.39,15.1,30.79C330.37,595.22,330.91,597.07,332.57,598.34Z"/><path class="cls-1" d="M455.29,747c-.67,0-1.32.15-2,.15s-1.57-.09-2.21-.14a7.9,7.9,0,0,1-1.84-3.21q-5.19-11.82-10.34-23.66-4-9.11-7.95-18.21a2.68,2.68,0,0,0-1.1-1.55.41.41,0,0,0-.38.06,1.76,1.76,0,0,0-.22.73c0,1.19,0,2.39,0,3.58q0,18.88,0,37.76c0,1.19,0,2.39-.13,3.57a1.19,1.19,0,0,1-.67.85,7.66,7.66,0,0,1-3.92,0,1.07,1.07,0,0,1-.55-.52,1.76,1.76,0,0,1-.18-.75c0-1.06-.05-2.12-.05-3.18q0-22.66,0-45.32c0-4.78-.43-4.6,4.46-4.59,1.06,0,2.12,0,3.17.08a1.52,1.52,0,0,1,1.28.83c.49.93.95,1.89,1.38,2.85q8.47,19.06,16.94,38.13c.53,1.2,1.19,2.34,1.83,3.49a.76.76,0,0,0,.69,0,13.85,13.85,0,0,0,1.18-2q4-9.07,8.07-18.15,4.83-10.9,9.67-21.79c.37-.85.78-1.68,1.22-2.49a1.53,1.53,0,0,1,1.29-.82c2,0,4,0,6,0,1.15,0,1.61.56,1.65,1.76,0,.8,0,1.59,0,2.39q0,23.06,0,46.11a30.44,30.44,0,0,1-.13,3.17,1.2,1.2,0,0,1-.66.86,7.66,7.66,0,0,1-3.92,0,.91.91,0,0,1-.54-.51,3.51,3.51,0,0,1-.22-1.16c0-1.19,0-2.38,0-3.57V704.3c0-1.19-.07-2.38-.11-3.57,0-.32-.21-.46-.54-.39a.47.47,0,0,0-.31.19c-.49.93-1,1.85-1.44,2.81q-8.36,19.11-16.7,38.23c-.58,1.33-1.14,2.68-1.76,4A12.44,12.44,0,0,1,455.29,747Z"/><path class="cls-1" d="M551.41,746.86c-.92-1.27-1.85-2.55-2.77-3.84q-14.07-20-28.15-40c-.68-1-1.48-1.85-2.24-2.76,0,0-.24,0-.36.05s-.25.14-.26.22c-.08,1.05-.19,2.1-.19,3.15q0,19.08,0,38.16c0,1.33,0,2.65-.08,4a1.33,1.33,0,0,1-1.29,1.23c-.27,0-.53,0-.8,0-3.13,0-3.35.15-3.35-3.25q0-24,0-48.1c0-.66,0-1.32.08-2a1.26,1.26,0,0,1,1-1.07c1.85,0,3.71-.1,5.55,0a2.16,2.16,0,0,1,1.34.74c.77.9,1.44,1.89,2.13,2.87l26.32,37.37c.68,1,1.39,1.93,2.13,2.87a.68.68,0,0,0,1.12-.44c.06-1.19.08-2.38.08-3.57q0-17.1,0-34.19c0-.92,0-1.85,0-2.78,0-2.76.1-3,3.27-3a5.75,5.75,0,0,1,1.54.29,1.07,1.07,0,0,1,.53.54,2,2,0,0,1,.15.78c0,1.06,0,2.12,0,3.18v44.91c0,1.19,0,2.38-.08,3.58a1.17,1.17,0,0,1-.91,1.12A13.46,13.46,0,0,1,551.41,746.86Z"/><path class="cls-1" d="M616.41,713.33c-2.15-8.51-7.5-14.44-15.5-18a31.28,31.28,0,0,0-8.82-2.3c-7.11-.78-14.29-.43-21.44-.39-1,0-1.6.63-1.63,1.8s0,2.38,0,3.59v44.5c0,1.21.11,2.38.19,3.59a1,1,0,0,0,.74.82,5.24,5.24,0,0,0,1.57.16h15.1a41.77,41.77,0,0,0,8.28-.94,27,27,0,0,0,18.07-11.91A25.19,25.19,0,0,0,616.41,713.33ZM606.84,734a18.69,18.69,0,0,1-8.16,6,31.68,31.68,0,0,1-9.68,2.11c-4.33.23-8.7.12-13.07.16a1.26,1.26,0,0,1-1.29-1.21c0-1.17-.08-2.38-.08-3.56,0-6,0-11.9,0-17.84s0-11.63,0-17.45c0-1.21,0-2.38.12-3.59a1.15,1.15,0,0,1,.93-1,86.5,86.5,0,0,1,15.85.35,30.59,30.59,0,0,1,6.87,1.83,21.58,21.58,0,0,1,13.31,18.66A22.64,22.64,0,0,1,606.84,734Z"/><path class="cls-1" d="M627,732.39c.35,1.25.58,2.28.93,3.28a10.64,10.64,0,0,0,9.38,7.47,12.91,12.91,0,0,0,7.37-1.07,10.34,10.34,0,0,0,6.12-7.81,9.64,9.64,0,0,0-3.78-9.83,16.44,16.44,0,0,0-3.81-2.1c-2-.8-4-1.42-6-2.09-1.25-.42-2.54-.75-3.78-1.22a19.33,19.33,0,0,1-4.85-2.68,12.35,12.35,0,0,1-4.86-12.29c.93-6.21,4.9-9.81,10.64-11.61a16.73,16.73,0,0,1,9.81-.17A14.78,14.78,0,0,1,654.89,703a9.62,9.62,0,0,1,.14,2.74.8.8,0,0,1-.47.56,9.7,9.7,0,0,1-4,.08,1.66,1.66,0,0,1-.93-1.52,9,9,0,0,0-1.3-3.3,10.18,10.18,0,0,0-9.75-5,9.48,9.48,0,0,0-7.73,4.2,9,9,0,0,0-1.49,7.18,7.2,7.2,0,0,0,3.26,4.79,19.55,19.55,0,0,0,3.55,1.76c1.73.65,3.53,1.14,5.29,1.7s3.29,1,4.9,1.62a21.38,21.38,0,0,1,2.5,1.22c9.5,5,10.13,18.11,2.5,24.57A17.33,17.33,0,0,1,640.51,748a20.43,20.43,0,0,1-8.6-1.13c-5.59-2.28-9.07-6.28-10-12.33a9.47,9.47,0,0,1,0-1.19,1.18,1.18,0,0,1,1-1.1A11.57,11.57,0,0,1,627,732.39Z"/><path class="cls-1" d="M500.05,720.06q0,11.1,0,22.21c0,1.19,0,2.38-.08,3.57a1.28,1.28,0,0,1-1.27,1.23l-.4,0c-3.7,0-3.76.22-3.75-3.62q0-23.61,0-47.22c0-.79,0-1.59.06-2.38a1.39,1.39,0,0,1,1.3-1.24c.4,0,.8-.07,1.19-.07,2.67,0,2.94.2,2.95,2.88q0,12.3,0,24.61Z"/></svg>